<svg width="32" height="32" viewBox="0 0 100 100" fill="none" xmlns="http://www.w3.org/2000/svg">
  <defs>
    <linearGradient id="clickGradient" x1="0%" y1="0%" x2="100%" y2="0%">
      <stop offset="0%" stop-color="#ec4899" />
      <stop offset="100%" stop-color="#f97316" />
    </linearGradient>
  </defs>
  
  <!-- Cabeza del mono -->
  <circle cx="35" cy="35" r="18" fill="none" stroke="#1e293b" stroke-width="3"/>
  
  <!-- Orejas del mono -->
  <circle cx="25" cy="25" r="6" fill="none" stroke="#1e293b" stroke-width="2"/>
  <circle cx="45" cy="25" r="6" fill="none" stroke="#1e293b" stroke-width="2"/>
  
  <!-- Ojos del mono -->
  <circle cx="30" cy="32" r="2" fill="#1e293b"/>
  <circle cx="40" cy="32" r="2" fill="#1e293b"/>
  
  <!-- Nariz del mono -->
  <ellipse cx="35" cy="38" rx="1.5" ry="1" fill="#1e293b"/>
  
  <!-- Boca del mono -->
  <path d="M 30 42 Q 35 45 40 42" fill="none" stroke="#1e293b" stroke-width="2" stroke-linecap="round"/>
  
  <!-- Cuerpo del mono -->
  <ellipse cx="35" cy="65" rx="12" ry="15" fill="none" stroke="#1e293b" stroke-width="3"/>
  
  <!-- Brazo izquierdo del mono -->
  <path d="M 23 60 Q 15 55 12 65" fill="none" stroke="#1e293b" stroke-width="3" stroke-linecap="round"/>
  
  <!-- Mano del mono con cursor -->
  <circle cx="12" cy="65" r="3" fill="#1e293b"/>
  
  <!-- Cursor de computadora -->
  <path d="M 12 65 L 8 70 L 10 72 L 14 70 Z" fill="#1e293b"/>
  <path d="M 8 70 L 6 75 L 8 77 L 10 75 Z" fill="#1e293b"/>
  
  <!-- Texto "Click" con gradiente -->
  <text x="60" y="45" font-family="Arial, sans-serif" font-size="16" font-weight="bold" fill="url(#clickGradient)">Click</text>
</svg>
