<?xml version="1.0" encoding="UTF-8"?>
<svg version="1.1" xmlns="http://www.w3.org/2000/svg" width="500" height="500">
<path d="M0 0 C2.67015438 2.32277669 5.28004919 4.6626545 7.6875 7.26171875 C7.6875 7.92171875 7.6875 8.58171875 7.6875 9.26171875 C8.3475 9.26171875 9.0075 9.26171875 9.6875 9.26171875 C16.1177729 21.29747895 20.91324386 31.7484331 20.75 45.63671875 C20.74548828 46.37277344 20.74097656 47.10882813 20.73632812 47.8671875 C20.72465142 49.66540033 20.70672011 51.46357072 20.6875 53.26171875 C22.55668091 53.23815308 22.55668091 53.23815308 24.46362305 53.21411133 C29.09474198 53.15973802 33.72583278 53.12534164 38.35717773 53.09692383 C40.36015572 53.0818541 42.3631008 53.06139465 44.3659668 53.03540039 C47.24796681 52.99893748 50.12952984 52.98197414 53.01171875 52.96875 C53.90461105 52.95326614 54.79750336 52.93778229 55.717453 52.92182922 C60.49373345 52.92054156 63.89568577 53.0115268 67.6875 56.26171875 C69.52598805 59.29463754 70.04341977 61.88781316 70.37353516 65.39746094 C70.47348785 66.41821716 70.57344055 67.43897339 70.67642212 68.49066162 C70.82499161 70.13303802 70.82499161 70.13303802 70.9765625 71.80859375 C71.08471283 72.93493225 71.19286316 74.06127075 71.30429077 75.22174072 C71.64784269 78.81773584 71.98030122 82.41465881 72.3125 86.01171875 C72.54354075 88.45059011 72.77530283 90.88939325 73.0078125 93.328125 C73.57607932 99.30522335 74.13524279 105.2831211 74.6875 111.26171875 C75.35513367 111.2528363 76.02276733 111.24395386 76.71063232 111.23480225 C83.65335538 111.14637402 90.59591871 111.08600299 97.5390625 111.04199219 C100.13092546 111.021865 102.72274296 110.99456059 105.31445312 110.95996094 C109.03787449 110.91149374 112.76069599 110.88876059 116.484375 110.87109375 C118.22518341 110.84012604 118.22518341 110.84012604 120.00115967 110.80853271 C121.08197815 110.80823059 122.16279663 110.80792847 123.27636719 110.80761719 C124.70199982 110.79429352 124.70199982 110.79429352 126.15643311 110.78070068 C129.44135574 111.4049857 130.62629683 112.68616357 132.6875 115.26171875 C133.1484375 117.515625 133.1484375 117.515625 133.0625 119.82421875 C133.04316406 120.97083984 133.04316406 120.97083984 133.0234375 122.140625 C132.6875 124.26171875 132.6875 124.26171875 130.6875 127.26171875 C124.58639542 129.73545896 118.57289017 129.52053937 112.06640625 129.45703125 C110.96650864 129.45420135 109.86661102 129.45137146 108.73338318 129.44845581 C105.23880897 129.43730855 101.74449606 129.41221373 98.25 129.38671875 C95.87305059 129.37668191 93.49609714 129.36755729 91.11914062 129.359375 C85.3085054 129.33738706 79.49802138 129.30396385 73.6875 129.26171875 C73.44370605 130.32430908 73.19991211 131.38689941 72.94873047 132.48168945 C70.77840714 141.86760576 68.41984986 151.17346815 65.8125 160.44921875 C65.10649538 162.9842983 64.40076844 165.51945521 63.6953125 168.0546875 C63.35274414 169.2823584 63.01017578 170.5100293 62.65722656 171.77490234 C61.31561689 176.59888758 59.99952954 181.42962104 58.6875 186.26171875 C56.32782944 194.93261052 53.94936615 203.59827866 51.5625 212.26171875 C51.23765625 213.4425 50.9128125 214.62328125 50.578125 215.83984375 C48.98152961 221.62912459 47.3637663 227.41121854 45.70703125 233.18359375 C43.38919066 241.26666745 41.17121179 249.37662227 38.96118164 257.48974609 C38.4408167 259.39861777 37.91771987 261.30674407 37.39453125 263.21484375 C37.0900708 264.33020508 36.78561035 265.44556641 36.47192383 266.59472656 C35.6875 269.26171875 35.6875 269.26171875 34.6875 271.26171875 C47.2275 271.26171875 59.7675 271.26171875 72.6875 271.26171875 C72.20120144 260.0768518 71.42105145 249.31666157 69.6875 238.26171875 C68.71707569 231.59813846 68.58871677 224.98507188 68.5625 218.26171875 C68.55782715 217.41134033 68.5531543 216.56096191 68.54833984 215.68481445 C68.55043457 214.88519287 68.5525293 214.08557129 68.5546875 213.26171875 C68.55581543 212.53984375 68.55694336 211.81796875 68.55810547 211.07421875 C68.6875 209.26171875 68.6875 209.26171875 69.6875 207.26171875 C70.3475 207.26171875 71.0075 207.26171875 71.6875 207.26171875 C71.6875 206.60171875 71.6875 205.94171875 71.6875 205.26171875 C74.74040269 204.96817041 77.64374724 204.83139508 80.6875 205.26171875 C84.66907998 208.94468024 85.70646188 212.60162311 86.24414062 217.84985352 C86.34094116 218.7783461 86.4377417 219.70683868 86.53747559 220.66346741 C86.63854614 221.66655441 86.7396167 222.66964142 86.84375 223.703125 C87.00454041 225.25929787 87.00454041 225.25929787 87.1685791 226.84690857 C87.51140625 230.17235997 87.8494965 233.49827396 88.1875 236.82421875 C88.41505643 239.03844315 88.64291752 241.25263626 88.87109375 243.46679688 C89.38802932 248.49198174 89.90400353 253.51725297 90.41064453 258.54348755 C90.59688204 260.37201059 90.78805005 262.20003749 90.98388672 264.02755737 C91.07621582 264.90267975 91.16854492 265.77780212 91.26367188 266.67944336 C91.38832825 267.83614784 91.38832825 267.83614784 91.51550293 269.01622009 C91.96727965 274.91436716 91.7380258 279.47054397 87.9375 284.19921875 C84.98141399 287.48980923 81.95344312 289.04196726 77.50064087 289.47380066 C74.78465791 289.58925328 72.07371204 289.64302324 69.35546875 289.67578125 C67.86784782 289.70483047 67.86784782 289.70483047 66.35017395 289.73446655 C63.1918693 289.79410328 60.0335279 289.8405843 56.875 289.88671875 C54.72980208 289.92491315 52.58461925 289.96396573 50.43945312 290.00390625 C45.18893638 290.09979167 39.93832824 290.18488553 34.6875 290.26171875 C34.89944 290.80590958 35.11138 291.3501004 35.32974243 291.91078186 C35.60458466 292.62737473 35.87942688 293.34396759 36.16259766 294.08227539 C36.43641266 294.79146622 36.71022766 295.50065704 36.99234009 296.2313385 C39.52020328 303.61456559 37.57599368 311.29838578 34.6875 318.26171875 C34.0275 318.26171875 33.3675 318.26171875 32.6875 318.26171875 C32.501875 318.96296875 32.31625 319.66421875 32.125 320.38671875 C28.8324947 326.97172936 22.26464446 330.47358143 15.6875 333.26171875 C7.33590004 336.0455854 -0.5675918 333.92112521 -8.3125 330.26171875 C-11.25 328.26171875 -11.25 328.26171875 -13.3125 326.26171875 C-13.94800781 325.68679688 -14.58351563 325.111875 -15.23828125 324.51953125 C-20.15265036 319.17018032 -23.65520476 311.3737342 -23.875 304.07421875 C-23.3125 299.26171875 -23.3125 299.26171875 -20.3125 289.26171875 C-34.1725 289.26171875 -48.0325 289.26171875 -62.3125 289.26171875 C-61.3225 293.22171875 -60.3325 297.18171875 -59.3125 301.26171875 C-59.13232698 311.29841572 -62.69568054 318.32380471 -69.390625 325.484375 C-75.62958592 331.49428316 -81.49453425 334.21025129 -90.125 334.76171875 C-98.01560243 334.47903362 -105.62675956 331.30298363 -111.3125 325.82421875 C-118.13402266 318.12303502 -120.50861957 311.1772912 -120.578125 301.046875 C-120.33238182 298.47018553 -119.86879671 296.10780151 -119.29589844 293.58764648 C-119.11267029 292.77746567 -118.92944214 291.96728485 -118.74066162 291.1325531 C-118.59936829 290.51517776 -118.45807495 289.89780243 -118.3125 289.26171875 C-118.86071915 289.2706012 -119.40893829 289.27948364 -119.97377014 289.28863525 C-125.70042451 289.37740623 -131.42688213 289.43757576 -137.15405273 289.48144531 C-139.28889918 289.50151057 -141.423691 289.52876933 -143.55834961 289.56347656 C-146.63408925 289.61221818 -149.70909969 289.63473881 -152.78515625 289.65234375 C-153.73334732 289.67298889 -154.68153839 289.69363403 -155.65846252 289.71490479 C-161.76329459 289.71695321 -165.30625904 288.8093307 -170.3125 285.26171875 C-175.395758 279.65612096 -174.60035589 272.33321761 -174.3125 265.26171875 C-174.00929117 261.41199616 -173.55095443 257.59190501 -173.0625 253.76171875 C-172.78686387 251.48448334 -172.51218016 249.20713251 -172.23828125 246.9296875 C-172.08955566 245.70685059 -171.94083008 244.48401367 -171.78759766 243.22412109 C-170.90285876 235.84523499 -170.07431151 228.46006529 -169.25 221.07421875 C-169.1635321 220.3018689 -169.07706421 219.52951904 -168.98797607 218.73376465 C-167.83566084 208.41189894 -166.80719606 198.09015467 -165.96069336 187.73803711 C-165.42116614 181.21849874 -164.65734118 174.76016436 -163.8046875 168.2734375 C-163.24041859 163.8416212 -162.84002196 159.39816843 -162.4375 154.94921875 C-161.52241832 144.90484055 -160.35630796 134.89331792 -159.17932129 124.87710571 C-158.09258387 115.58850677 -157.10125731 106.29622712 -156.234375 96.984375 C-156.146185 96.03836929 -156.057995 95.09236359 -155.96713257 94.11769104 C-155.53747416 89.48268958 -155.11719151 84.84701419 -154.70751953 80.21020508 C-154.55248912 78.50601483 -154.3973821 76.80183155 -154.2421875 75.09765625 C-154.17771423 74.33651016 -154.11324097 73.57536407 -154.04681396 72.79115295 C-153.84540913 70.60678619 -153.59517383 68.43700937 -153.3125 66.26171875 C-153.21600159 65.46679016 -153.11950317 64.67186157 -153.02008057 63.85284424 C-152.34655522 59.72677807 -151.80754626 57.75609564 -148.78466797 54.73730469 C-144.30799446 52.83482861 -140.57528855 52.65917967 -135.7578125 52.65234375 C-134.85626434 52.6358075 -133.95471619 52.61927124 -133.02584839 52.60223389 C-130.16299543 52.55387772 -127.3006732 52.53241059 -124.4375 52.51171875 C-122.48955681 52.48354869 -120.54163821 52.45361982 -118.59375 52.421875 C-113.83337705 52.34812209 -109.07329657 52.29847187 -104.3125 52.26171875 C-104.26206543 51.04718018 -104.21163086 49.8326416 -104.15966797 48.58129883 C-104.08340561 46.96043045 -104.00672308 45.33958181 -103.9296875 43.71875 C-103.88171021 42.52288269 -103.88171021 42.52288269 -103.83276367 41.30285645 C-103.38855145 32.33847055 -101.41133368 23.80318741 -96.3125 16.26171875 C-95.3225 15.76671875 -95.3225 15.76671875 -94.3125 15.26171875 C-94.09400391 14.35486328 -94.09400391 14.35486328 -93.87109375 13.4296875 C-92.78122622 9.19978203 -89.27362632 6.33715326 -86.3125 3.26171875 C-85.260625 2.15376953 -85.260625 2.15376953 -84.1875 1.0234375 C-60.25186666 -22.38658227 -24.71434288 -20.74449148 0 0 Z M-63.3125 7.26171875 C-63.3125 7.92171875 -63.3125 8.58171875 -63.3125 9.26171875 C-63.93125 9.40609375 -64.55 9.55046875 -65.1875 9.69921875 C-67.34508322 10.193241 -67.34508322 10.193241 -69.3125 11.26171875 C-69.3125 11.92171875 -69.3125 12.58171875 -69.3125 13.26171875 C-69.87839844 13.47570312 -70.44429687 13.6896875 -71.02734375 13.91015625 C-78.03848 18.05691376 -83.20148363 27.6092844 -85.3125 35.26171875 C-86.84400454 41.38773691 -86.3125 46.63362686 -86.3125 53.26171875 C-56.6125 53.26171875 -26.9125 53.26171875 3.6875 53.26171875 C3.6875 37.10395387 0.90690683 26.00295846 -10.3125 14.26171875 C-20.79546321 4.7602282 -31.43017898 1.91021945 -45.359375 1.96484375 C-51.75984169 2.44551121 -57.58691193 4.39892471 -63.3125 7.26171875 Z M-136.3125 72.26171875 C-136.62911362 74.70950411 -136.88669702 77.14074039 -137.109375 79.59765625 C-137.26241595 81.19393241 -137.41549395 82.79020503 -137.56860352 84.38647461 C-137.64877716 85.23982391 -137.72895081 86.09317322 -137.81155396 86.97238159 C-139.29669832 102.7404138 -140.99704282 118.47347329 -142.875 134.19921875 C-144.38182337 146.8537381 -145.77586138 159.50253287 -146.875 172.19921875 C-147.87294248 183.71840716 -149.02258987 195.20910782 -150.3125 206.69921875 C-150.39714508 207.45414612 -150.48179016 208.20907349 -150.56900024 208.98687744 C-151.43421594 216.68282527 -152.3226368 224.37583529 -153.234375 232.06640625 C-153.37488281 233.2582251 -153.51539063 234.45004395 -153.66015625 235.67797852 C-153.91911055 237.86384822 -154.1818303 240.04927684 -154.44921875 242.23413086 C-155.05112717 247.29328945 -155.39343269 252.16970367 -155.3125 257.26171875 C-155.56 258.43734375 -155.56 258.43734375 -155.8125 259.63671875 C-156.54910277 263.5038833 -156.38945756 267.33688319 -156.3125 271.26171875 C-152.79877299 272.34184091 -149.54493024 272.39270094 -145.8802948 272.40216064 C-145.23661479 272.40513177 -144.59293478 272.40810289 -143.92974931 272.41116405 C-141.77501171 272.41982876 -139.62032981 272.4213574 -137.46557617 272.42285156 C-135.91971214 272.4274813 -134.37384924 272.43250617 -132.82798767 272.43789673 C-128.62954175 272.45100735 -124.4311118 272.45746302 -120.23264861 272.46190739 C-117.60869809 272.46484014 -114.98475193 272.46894532 -112.3608036 272.47341156 C-104.14833382 272.48708268 -95.935874 272.49675135 -87.72339362 272.50061345 C-78.24826599 272.50509405 -68.77328264 272.5226436 -59.29819888 272.55161405 C-51.97067793 272.57323942 -44.64319755 272.58331818 -37.31564504 272.58465457 C-32.94080864 272.58570194 -28.56610792 272.59159535 -24.19130516 272.60947418 C-20.07496749 272.62596979 -15.95886729 272.62810319 -11.84250832 272.61933517 C-10.33447254 272.61856561 -8.82642391 272.62289693 -7.31842041 272.63279343 C-5.25388495 272.6455442 -3.19018671 272.63962018 -1.12565613 272.62921143 C0.02784238 272.63067799 1.18134089 272.63214455 2.36979389 272.63365555 C7.64902052 272.04181933 12.4628958 270.27769108 15.9375 266.07421875 C19.79870205 261.17306628 21.47987407 256.25610429 22.22143555 250.11889648 C22.37523682 248.84602783 22.52903809 247.57315918 22.6875 246.26171875 C20.99740311 246.25291939 20.99740311 246.25291939 19.27316284 246.24394226 C8.64983526 246.18670565 -1.97328781 246.11393892 -12.59640694 246.02600384 C-18.05774584 245.98129461 -23.51901004 245.94203954 -28.98046875 245.9152832 C-34.25202557 245.88925598 -39.52329502 245.8488573 -44.79467392 245.79853249 C-46.80484312 245.78185992 -48.81506203 245.77034807 -50.82529068 245.76410484 C-53.64311021 245.75446814 -56.46019393 245.72641365 -59.27783203 245.6940918 C-60.10717758 245.69552689 -60.93652313 245.69696198 -61.79100037 245.69844055 C-66.69501578 245.61899307 -70.03911242 244.92504776 -74.3125 242.26171875 C-75.70874023 240.67456055 -75.70874023 240.67456055 -76.62109375 238.9609375 C-77.1471521 238.0009082 -77.1471521 238.0009082 -77.68383789 237.02148438 C-78.03567139 236.33763672 -78.38750488 235.65378906 -78.75 234.94921875 C-79.13341553 234.23572266 -79.51683105 233.52222656 -79.91186523 232.78710938 C-81.0665561 230.6222741 -82.1941332 228.44550893 -83.3125 226.26171875 C-83.62864258 225.6476416 -83.94478516 225.03356445 -84.27050781 224.40087891 C-86.33131521 220.37723692 -88.32693893 216.32288901 -90.3125 212.26171875 C-91.51610386 209.80089838 -92.72317371 207.34222451 -93.9375 204.88671875 C-94.25275635 204.24541016 -94.5680127 203.60410156 -94.89282227 202.94335938 C-97.04692587 198.62176304 -99.33948906 194.39788854 -101.7109375 190.19140625 C-102.30438965 189.12970215 -102.8978418 188.06799805 -103.50927734 186.97412109 C-104.69044171 184.86990221 -105.88561681 182.7734727 -107.09619141 180.68603516 C-110.3407859 174.88753192 -112.17819058 170.93443108 -111.3125 164.26171875 C-110.25 162.32421875 -110.25 162.32421875 -108.3125 161.26171875 C-101.36743545 159.84081518 -94.32843552 160.14362928 -87.27075195 160.17993164 C-85.84765733 160.1834918 -84.42456146 160.18657668 -83.00146484 160.18922424 C-79.94804192 160.19575232 -76.89464878 160.20529644 -73.84124184 160.21711922 C-69.01307954 160.23546635 -64.1849243 160.24502467 -59.35673523 160.2530365 C-45.63126495 160.27714962 -31.90583856 160.31313578 -18.18041992 160.35766602 C-10.59159898 160.38220936 -3.00279495 160.39957267 4.58605987 160.4092254 C9.38614919 160.41576752 14.18609858 160.43132323 18.98613966 160.45354283 C21.96906866 160.46526652 24.95196357 160.46863981 27.93491364 160.46964073 C29.31843611 160.47178926 30.70195815 160.47738458 32.08545113 160.48667145 C33.97320543 160.49885385 35.86103255 160.49752427 37.74882507 160.49549866 C38.80532603 160.49864106 39.86182699 160.50178347 40.95034313 160.5050211 C43.73804744 160.25722565 45.36616422 159.7993618 47.6875 158.26171875 C49.31657693 154.8708253 50.118986 151.2099005 51.07080078 147.57617188 C51.78283385 144.90393375 52.54799106 142.24865386 53.30859375 139.58984375 C53.8747725 137.52278493 54.43855816 135.4550692 55 133.38671875 C55.2789209 132.41976074 55.5578418 131.45280273 55.84521484 130.45654297 C58.00803673 122.18612107 57.62339349 114.69157157 56.6875 106.26171875 C56.53140206 104.77116849 56.37539912 103.28060829 56.21948242 101.79003906 C55.72019813 97.1308715 55.17510021 92.47761255 54.625 87.82421875 C54.43651377 86.20641922 54.24836102 84.58858081 54.06054688 82.97070312 C53.60729729 79.06716591 53.14728132 75.16451369 52.6875 71.26171875 C42.1275 71.26171875 31.5675 71.26171875 20.6875 71.26171875 C20.3575 79.84171875 20.0275 88.42171875 19.6875 97.26171875 C13.06179811 100.57456969 12.29770693 100.51537869 5.6875 99.26171875 C3.41806686 90.18398617 4.07704169 80.61071938 3.6875 71.26171875 C-26.0125 71.26171875 -55.7125 71.26171875 -86.3125 71.26171875 C-86.6425 78.85171875 -86.9725 86.44171875 -87.3125 94.26171875 C-89.3125 98.26171875 -89.3125 98.26171875 -92.3125 100.26171875 C-95.62559774 100.61417596 -97.64260093 100.60572098 -100.625 99.07421875 C-103.65012911 95.825006 -103.44524165 91.45644899 -103.62890625 87.1796875 C-103.67080078 86.24833984 -103.71269531 85.31699219 -103.75585938 84.35742188 C-103.79517578 83.39771484 -103.83449219 82.43800781 -103.875 81.44921875 C-103.91818359 80.47017578 -103.96136719 79.49113281 -104.00585938 78.48242188 C-104.1115226 76.07564848 -104.21362327 73.66877892 -104.3125 71.26171875 C-108.70906173 71.23706371 -113.1055872 71.21888033 -117.50219727 71.20678711 C-118.99894918 71.20174754 -120.49569616 71.19491588 -121.99243164 71.1862793 C-124.13949807 71.17419716 -126.28649962 71.16848684 -128.43359375 71.1640625 C-129.7270874 71.15882568 -131.02058105 71.15358887 -132.35327148 71.14819336 C-135.19902404 70.92174943 -135.19902404 70.92174943 -136.3125 72.26171875 Z M-89.3125 176.26171875 C-88.11731513 179.96270307 -86.96108918 183.08259729 -84.8125 186.32421875 C-81.0091262 192.45809121 -78.06289409 198.96591554 -75.00390625 205.49023438 C-72.33069281 211.1738599 -69.55854816 216.73310442 -66.46875 222.203125 C-65.35360674 224.18853209 -64.33086986 226.22497904 -63.3125 228.26171875 C-32.9525 228.26171875 -2.5925 228.26171875 28.6875 228.26171875 C30.0075 223.31171875 31.3275 218.36171875 32.6875 213.26171875 C33.29851562 211.01746094 33.90953125 208.77320313 34.5390625 206.4609375 C34.83296875 205.38134766 35.126875 204.30175781 35.4296875 203.18945312 C36.023723 201.00913257 36.62012032 198.82945428 37.21875 196.65039062 C38.96354257 190.22322329 40.46707882 183.80820703 41.6875 177.26171875 C33.91012608 176.41605151 26.24286637 176.12222276 18.4230957 176.14819336 C17.25106094 176.14804733 16.07902618 176.14790131 14.87147522 176.14775085 C11.03539109 176.14844205 7.1993568 176.15619702 3.36328125 176.1640625 C0.68857237 176.1659295 -1.98613383 176.16740133 -4.6608429 176.16835022 C-10.95744399 176.17144362 -17.25402747 176.17962986 -23.55062085 176.18969971 C-30.72606949 176.20092307 -37.90151902 176.2063869 -45.07697427 176.21139514 C-59.82215847 176.22181439 -74.56732893 176.23937482 -89.3125 176.26171875 Z M-101.3125 296.26171875 C-103.63372081 300.05226451 -103.5164298 302.7707745 -102.921875 307.07421875 C-101.77761594 311.18181539 -98.95220652 313.28127568 -95.41796875 315.39453125 C-91.66066807 316.94206511 -88.16693003 316.26200336 -84.3125 315.26171875 C-81.31458296 313.93069334 -80.51821636 312.96372129 -78.3125 310.26171875 C-76.75797847 305.24713318 -76.67590843 301.55847936 -79 296.82421875 C-82.67699375 292.72523048 -82.67699375 292.72523048 -87.6796875 290.79296875 C-94.06532849 290.7133969 -96.97462698 291.49005843 -101.3125 296.26171875 Z M-4.3125 296.26171875 C-6.16884116 299.97440106 -5.75994549 304.2098513 -5.3125 308.26171875 C-3.60053735 311.81245609 -2.37847467 313.62789598 1 315.63671875 C5.90297866 316.77694634 9.90018735 316.93409224 14.4375 314.63671875 C17.89951019 312.40668516 19.45586567 310.26453033 20.6875 306.26171875 C20.7280337 302.06242712 20.23109846 297.69557667 17.6875 294.26171875 C13.73599245 290.69261515 9.44776889 290.70833165 4.35546875 290.83203125 C0.17302067 291.50563197 -1.50127547 293.15457585 -4.3125 296.26171875 Z " fill="#EFEFEF" transform="translate(291.3125,91.73828125)"/>
<path d="M0 0 C0.33 0 0.66 0 1 0 C0.97381592 0.75095947 0.94763184 1.50191895 0.9206543 2.27563477 C0.81620824 5.7043739 0.75152149 9.13277758 0.6875 12.5625 C0.64560547 13.74392578 0.60371094 14.92535156 0.56054688 16.14257812 C0.4568425 23.54707038 0.87844619 27.53350992 6 33 C6.99663672 34.00335201 7.99577949 35.0042384 9 36 C5.05735118 34.68578373 2.66043371 33.21086827 0 30 C-4.41929048 20.76824374 -1.74555387 9.66288751 0 0 Z " fill="#DADADA" transform="translate(119,344)"/>
<path d="M0 0 C14.85 0 29.7 0 45 0 C44.34 1.32 43.68 2.64 43 4 C42.505 2.515 42.505 2.515 42 1 C28.14 1 14.28 1 0 1 C0 0.67 0 0.34 0 0 Z " fill="#D4D4D4" transform="translate(131,380)"/>
<path d="M0 0 C1.0828125 0.37125 1.0828125 0.37125 2.1875 0.75 C-0.8125 2.75 -0.8125 2.75 -2.875 3.125 C-4.9134011 3.56538757 -4.9134011 3.56538757 -5.86328125 5.2734375 C-7.20078053 8.76304469 -7.53993568 12.31112449 -7.9375 16 C-8.06705078 17.11761719 -8.06705078 17.11761719 -8.19921875 18.2578125 C-8.41036867 20.08777846 -8.61234545 21.91879879 -8.8125 23.75 C-9.1425 23.75 -9.4725 23.75 -9.8125 23.75 C-10.38707058 6.67248552 -10.38707058 6.67248552 -5.5 1.125 C-2.8125 -0.25 -2.8125 -0.25 0 0 Z " fill="#D7D6D6" transform="translate(147.8125,145.25)"/>
<path d="M0 0 C4.70657938 5.72974881 4.59367663 11.80661818 4 19 C3.23080337 21.85765494 2.22644081 24.29160987 1 27 C-0.05566977 23.83299069 0.02073626 23.03571759 1 20 C1.33 19.34 1.66 18.68 2 18 C2.43498048 12.85104498 2.16590206 8.73791076 0 4 C0 2.68 0 1.36 0 0 Z " fill="#D0CFD0" transform="translate(325,382)"/>
<path d="M0 0 C2.64 0 5.28 0 8 0 C7.67 1.65 7.34 3.3 7 5 C6.01 5 5.02 5 4 5 C3.34 4.34 2.68 3.68 2 3 C-0.10820797 3.3185177 -0.10820797 3.3185177 -2 4 C-2 3.34 -2 2.68 -2 2 C-1.34 2 -0.68 2 0 2 C0 1.34 0 0.68 0 0 Z " fill="#E5E5E5" transform="translate(363,297)"/>
<path d="M0 0 C0.33 0.99 0.66 1.98 1 3 C0.67 3.66 0.34 4.32 0 5 C6.93 5.495 6.93 5.495 14 6 C14 6.33 14 6.66 14 7 C8.72 7 3.44 7 -2 7 C-1 1 -1 1 0 0 Z " fill="#E3E2E3" transform="translate(326,358)"/>
<path d="M0 0 C1.24752897 3.74258691 0.5279335 4.46162767 -1 8 C-1.68679942 10.32748694 -2.35761043 12.65986656 -3 15 C-4.01382963 11.3791799 -4.49897691 7.72188582 -5 4 C-4.01 4 -3.02 4 -2 4 C-2 3.01 -2 2.02 -2 1 C-1.34 0.67 -0.68 0.34 0 0 Z " fill="#E1E0E0" transform="translate(208,119)"/>
<path d="M0 0 C0.66 1.32 1.32 2.64 2 4 C4.97 4 7.94 4 11 4 C10.67 4.66 10.34 5.32 10 6 C6.71626233 6.89556482 4.50805143 7.12419035 1.1875 6.3125 C-1 5 -1 5 -1.8125 2.875 C-1.874375 2.25625 -1.93625 1.6375 -2 1 C-1.34 0.67 -0.68 0.34 0 0 Z " fill="#D9D9D9" transform="translate(298,186)"/>
<path d="M0 0 C1.32 0 2.64 0 4 0 C4.2475 0.7425 4.495 1.485 4.75 2.25 C6.09147301 5.20124062 7.60905526 6.84814974 10 9 C6.71245489 8.42110619 5.06327505 7.45171589 2.75 5.0625 C2.22921875 4.53785156 1.7084375 4.01320313 1.171875 3.47265625 C0 2 0 2 0 0 Z " fill="#DEDDDE" transform="translate(177,412)"/>
<path d="M0 0 C3 2 3 2 3.6875 3.6875 C4.34169232 8.52852318 4.71027688 12.76519238 2 17 C1 15 1 15 1.5625 11.125 C2.05788335 7.70066261 1.88142416 5.98814426 0 3 C0 2.01 0 1.02 0 0 Z " fill="#D4D2D3" transform="translate(309,386)"/>
<path d="M0 0 C2 2 2 2 2.046875 4.0234375 C1.94890625 4.79945313 1.8509375 5.57546875 1.75 6.375 C1.66234375 7.14585937 1.5746875 7.91671875 1.484375 8.7109375 C0.98335114 11.0786793 0.17347456 12.89351698 -1 15 C-1.18451025 4.44191344 -1.18451025 4.44191344 0 0 Z " fill="#DAD8D9" transform="translate(131,229)"/>
<path d="M0 0 C3.0101666 2.00677773 3.70466441 2.84106264 5.25 5.9375 C5.60578125 6.62714844 5.9615625 7.31679688 6.328125 8.02734375 C7 10 7 10 6 13 C0.44419134 4.738041 0.44419134 4.738041 0 0 Z " fill="#D9D7D8" transform="translate(212,290)"/>
<path d="M0 0 C0.99 0 1.98 0 3 0 C1.8141763 3.37503669 0.72426311 5.64722731 -2 8 C-2.66 7.67 -3.32 7.34 -4 7 C-2.68 4.69 -1.36 2.38 0 0 Z " fill="#E0DFDF" transform="translate(321,410)"/>
<path d="M0 0 C0.66 0.99 1.32 1.98 2 3 C1 4 1 4 -0.84765625 4.09765625 C-2.8984375 4.06510417 -4.94921875 4.03255208 -7 4 C-4.68143083 2.45428722 -2.49361571 1.20381448 0 0 Z " fill="#DBDBDB" transform="translate(339,249)"/>
</svg>
