<svg version="1.1" id="Layer_1" xmlns="http://www.w3.org/2000/svg" xmlns:xlink="http://www.w3.org/1999/xlink" x="0px" y="0px"
	 width="100%" viewBox="0 0 1024 1024" enable-background="new 0 0 1024 1024" xml:space="preserve">
<path fill="#000000" opacity="1.000000" stroke="none" 
	d="
M461.239624,180.994598 
	C480.385651,177.471680 499.289337,175.871399 518.293152,176.783646 
	C586.058167,180.036530 644.031555,204.041367 687.444458,257.968201 
	C703.912292,278.424377 715.566956,301.589020 723.288086,326.664459 
	C724.642517,331.063263 726.776428,332.967926 731.343506,333.941162 
	C763.694580,340.835388 788.308411,370.054138 790.359497,403.544922 
	C792.140991,432.633118 781.386841,455.577637 756.436401,471.118378 
	C746.945862,477.029663 736.266968,479.674408 724.966248,479.299377 
	C722.135559,479.205444 719.575195,479.320221 717.157532,481.570160 
	C711.421082,486.908508 704.811829,487.615662 698.841980,484.110413 
	C693.011475,480.686981 690.365234,474.436462 691.850037,466.793457 
	C692.578918,463.041382 693.873535,459.400635 695.695557,456.003052 
	C698.993591,449.852966 704.376709,447.390747 711.544067,448.252594 
	C722.460571,449.565277 733.037048,449.430328 742.634460,442.551880 
	C759.344666,430.575653 764.432739,406.944366 753.783508,387.542389 
	C747.245911,375.631470 737.780090,367.268036 723.883301,364.776031 
	C719.747864,364.034454 715.952576,364.937500 712.160400,366.223083 
	C704.019775,368.982697 699.269653,366.355927 697.677246,357.859161 
	C688.683838,309.873901 664.326965,271.596039 624.490051,243.513809 
	C599.145691,225.647858 570.652954,215.254578 539.916321,211.259109 
	C498.604401,205.888931 458.520447,210.379669 420.242157,227.370560 
	C365.368530,251.727783 331.788757,293.656219 318.580078,352.010651 
	C315.186096,367.004944 313.840729,368.139923 299.265625,364.325562 
	C280.803619,359.493988 264.262543,368.801758 256.727234,388.262146 
	C249.417130,407.140900 255.881256,430.229706 271.796326,441.654938 
	C279.087646,446.889343 287.121521,449.431213 296.245636,448.031647 
	C302.523010,447.068756 306.893250,449.436646 309.795197,455.083984 
	C315.124664,465.455475 320.322327,475.894745 325.647583,486.268433 
	C328.903656,492.611359 329.152710,498.792450 326.063751,505.403900 
	C292.367737,577.524719 258.786713,649.699280 225.150452,721.848022 
	C221.232285,730.252380 214.026566,733.975708 205.695938,732.089355 
	C196.455353,729.997009 191.760239,719.593445 196.117981,710.117371 
	C205.094604,690.597473 214.306107,671.185730 223.385590,651.713013 
	C246.683792,601.745667 269.946503,551.761780 293.289520,501.815430 
	C294.680695,498.838745 294.461609,496.394775 293.234375,493.335846 
	C289.415558,483.817444 284.205078,478.200073 272.790375,475.773560 
	C246.054932,470.090149 225.759171,443.800201 222.502670,416.144012 
	C219.797531,393.170441 225.087936,372.774170 239.848770,355.142456 
	C251.879776,340.771515 267.306763,332.087952 286.320801,330.812958 
	C289.639557,330.590393 290.851654,329.158417 291.782440,326.254059 
	C316.126495,250.290573 369.008057,205.127747 444.783813,184.775757 
	C450.078186,183.353775 455.475220,182.313965 461.239624,180.994598 
z"/>
<path fill="#000000" opacity="1.000000" stroke="none" 
	d="
M785.863586,609.863647 
	C779.727783,616.007935 774.026611,622.103638 767.890747,627.724854 
	C764.136658,631.164062 764.339417,633.560608 767.863281,637.023010 
	C785.925781,654.770264 803.810608,672.698364 821.746521,690.574341 
	C828.824341,697.628479 836.049438,704.545959 842.892517,711.821899 
	C851.800049,721.292969 851.468872,733.204163 842.302490,742.560913 
	C827.849731,757.313904 812.916260,771.622986 798.981201,786.847412 
	C788.312073,798.503784 772.367554,797.697266 761.777954,786.811157 
	C737.737732,762.097961 712.914551,738.146240 688.389099,713.905762 
	C687.233582,712.763672 686.337402,711.228638 683.402100,709.763428 
	C678.466736,715.145508 673.658447,720.651123 668.568481,725.882751 
	C659.162659,735.550232 649.690308,745.157532 640.066040,754.606995 
	C626.174316,768.246582 604.173645,762.489380 599.383606,743.834045 
	C582.598450,678.462097 565.875427,613.073669 549.371765,547.630310 
	C544.580627,528.631531 555.173401,512.070618 573.378967,509.123474 
	C580.306763,508.001984 586.910522,510.513580 593.506165,511.936401 
	C644.035339,522.836609 694.515381,533.964478 745.002197,545.060486 
	C760.258423,548.413574 775.453125,552.055115 790.743164,555.242554 
	C799.099487,556.984619 805.266846,561.087952 807.954773,569.336426 
	C810.894775,578.358398 808.767029,586.494141 802.351379,593.339355 
	C797.113525,598.927917 791.539673,604.201599 785.863586,609.863647 
M692.502319,673.744629 
	C694.111206,675.184387 695.788208,676.555481 697.318726,678.074219 
	C723.918091,704.468201 750.532532,730.847290 777.035400,757.338013 
	C779.788635,760.090027 781.498779,759.612549 783.949951,757.092590 
	C792.308228,748.499512 800.673584,739.898682 809.387512,731.672913 
	C813.179932,728.092957 812.706238,725.904297 809.223267,722.480042 
	C782.969849,696.669434 756.912720,670.659363 730.736938,644.769592 
	C722.109375,636.236206 721.987000,628.289490 730.543457,619.787537 
	C741.649719,608.751892 752.733948,597.693970 763.785645,586.603699 
	C764.999939,585.385193 766.791016,584.422974 766.565857,581.516968 
	C704.808411,568.068115 642.928467,554.592590 580.875610,541.079346 
	C580.562195,547.900024 624.715576,718.533142 627.371277,721.661255 
	C630.300415,720.352600 632.239929,717.788269 634.434998,715.607605 
	C647.198914,702.927612 659.854187,690.138123 672.619324,677.459290 
	C679.298096,670.825684 684.415527,669.817322 692.502319,673.744629 
z"/>
<path fill="#000000" opacity="1.000000" stroke="none" 
	d="
M496.309845,369.224701 
	C492.054352,367.972839 489.472839,365.192657 486.928406,362.266113 
	C480.114929,354.429413 473.001862,346.870789 462.803406,343.422363 
	C434.779327,333.946381 402.266174,344.486877 388.287933,377.151001 
	C382.947449,389.630463 381.586182,402.462372 384.745819,415.711273 
	C387.341095,426.593903 392.879272,435.478241 403.009949,440.717468 
	C414.667297,446.746216 417.210754,456.191742 410.296417,468.472717 
	C399.420746,487.789642 393.758362,508.960571 392.051575,531.204041 
	C389.643707,562.583557 398.129181,590.587158 417.967896,614.837830 
	C437.649689,638.896729 463.053864,653.538696 494.076111,657.399353 
	C506.478271,658.942749 519.000183,658.295959 531.376526,656.013367 
	C540.044067,654.414856 546.805420,657.557007 549.812317,664.345276 
	C552.829773,671.157410 551.071167,678.591125 545.458008,683.346008 
	C542.486084,685.863464 538.842712,686.466919 535.264038,687.050476 
	C494.594482,693.682190 457.015869,685.537537 423.150787,662.172791 
	C389.227570,638.767700 368.969025,606.327820 362.635132,565.536743 
	C357.263550,530.943420 362.028198,497.586639 376.241211,465.615936 
	C377.409027,462.989105 377.002045,461.404602 375.077576,459.522095 
	C357.204193,442.038452 350.253571,420.238037 351.891632,395.920563 
	C354.833954,352.242584 384.642975,315.559784 429.715424,309.075867 
	C455.847931,305.316559 479.598663,311.745758 499.707184,329.607483 
	C501.542450,331.237701 503.022064,333.366882 506.037354,334.396698 
	C510.876617,329.407013 516.358276,324.846863 522.509033,321.150757 
	C574.453552,289.936890 642.200500,316.301666 656.136597,379.294891 
	C663.443176,412.321991 655.444397,441.421478 628.168030,463.495789 
	C623.891235,466.956879 619.303833,470.175629 613.761658,471.195374 
	C606.102234,472.604614 598.819275,468.378601 596.047180,461.317749 
	C593.243530,454.176331 595.576050,446.800812 602.781982,442.370026 
	C611.236633,437.171509 618.301453,430.848694 622.231018,421.567139 
	C630.607178,401.782867 627.923035,383.010162 615.959961,365.667145 
	C599.215637,341.392548 569.433411,333.503906 542.542969,345.549591 
	C535.649475,348.637604 529.804993,353.263611 525.631531,359.249908 
	C518.215576,369.887115 508.442261,371.972351 496.309845,369.224701 
z"/>
<path fill="#000000" opacity="1.000000" stroke="none" 
	d="
M469.081909,592.362854 
	C461.311981,592.768921 454.852661,591.164734 451.331146,584.062012 
	C446.137756,573.587158 453.011383,562.201965 465.095825,561.836487 
	C479.052277,561.414490 493.035919,561.531433 506.999237,561.822693 
	C516.470093,562.020203 522.414185,568.381653 522.320862,577.315796 
	C522.229004,586.108521 515.939209,592.195007 506.487274,592.298584 
	C494.182129,592.433411 481.874664,592.351624 469.081909,592.362854 
z"/>
<path fill="#000000" opacity="1.000000" stroke="none" 
	d="
M440.436188,428.759216 
	C432.945923,422.718903 429.650543,415.264954 431.543640,406.105835 
	C433.438385,396.938446 439.245789,390.903503 448.371094,389.041687 
	C457.293457,387.221252 465.175903,389.747437 471.050720,397.163055 
	C476.656097,404.238617 476.978271,415.842163 471.773010,423.353973 
	C466.382355,431.133301 456.248352,434.671173 447.089294,431.813202 
	C444.891083,431.127319 442.851074,429.934418 440.436188,428.759216 
z"/>
<path fill="#000000" opacity="1.000000" stroke="none" 
	d="
M537.981934,405.595215 
	C541.650879,393.889343 549.322021,388.276276 560.589539,388.706299 
	C570.523071,389.085419 578.175293,395.852234 580.573364,406.377838 
	C583.036804,417.190399 576.410645,428.278717 565.764404,431.159332 
	C554.385193,434.238342 542.337708,428.043274 538.869507,417.327271 
	C537.673584,413.632172 537.381897,409.856934 537.981934,405.595215 
z"/>
<path fill="#000000" opacity="1.000000" stroke="none" 
	d="
M542.705627,486.436584 
	C540.608032,494.297913 535.317749,498.544647 528.353760,498.260620 
	C521.648315,497.987152 516.119263,493.019653 514.967163,486.233704 
	C513.932251,480.137726 517.626221,473.923828 523.705383,471.534515 
	C533.612915,467.640564 543.126160,474.867065 542.705627,486.436584 
z"/>
<path fill="#000000" opacity="1.000000" stroke="none" 
	d="
M468.692932,484.922974 
	C469.235962,477.319122 472.552277,472.857269 478.647797,471.096863 
	C484.359344,469.447357 490.887695,471.746338 494.128571,476.548340 
	C497.227509,481.140106 497.074829,487.919403 493.768158,492.548553 
	C490.605286,496.976410 484.901611,499.150726 479.667786,497.923920 
	C473.289856,496.428894 469.824615,492.457092 468.692932,484.922974 
z"/>
</svg>